<mxfile host="Electron" modified="2024-02-11T19:19:32.762Z" agent="Mozilla/5.0 (Windows NT 10.0; Win64; x64) AppleWebKit/537.36 (KHTML, like Gecko) draw.io/23.0.2 Chrome/120.0.6099.109 Electron/28.1.0 Safari/537.36" etag="R1WxIfW7JNZeF7ZZJyiw" version="23.0.2" type="device">
  <diagram name="Страница — 1" id="SMpxzhVTN65tQ27sYAt0">
    <mxGraphModel dx="1349" dy="2386" grid="1" gridSize="10" guides="1" tooltips="1" connect="1" arrows="1" fold="1" page="1" pageScale="1" pageWidth="827" pageHeight="1169" math="0" shadow="0">
      <root>
        <mxCell id="0" />
        <mxCell id="1" parent="0" />
        <mxCell id="fCbSsRZ2tEqlu-2vmy3c-1" value="start" style="ellipse;whiteSpace=wrap;html=1;" vertex="1" parent="1">
          <mxGeometry x="180" y="30" width="120" height="80" as="geometry" />
        </mxCell>
        <mxCell id="fCbSsRZ2tEqlu-2vmy3c-2" value="" style="endArrow=classic;html=1;rounded=0;labelBackgroundColor=default;strokeColor=default;align=center;verticalAlign=middle;fontFamily=Helvetica;fontSize=11;fontColor=default;shape=connector;edgeStyle=orthogonalEdgeStyle;exitX=0.5;exitY=1;exitDx=0;exitDy=0;" edge="1" source="fCbSsRZ2tEqlu-2vmy3c-1" parent="1" target="fCbSsRZ2tEqlu-2vmy3c-6">
          <mxGeometry width="50" height="50" relative="1" as="geometry">
            <mxPoint x="290.29" y="200" as="sourcePoint" />
            <mxPoint x="240" y="230" as="targetPoint" />
          </mxGeometry>
        </mxCell>
        <mxCell id="fCbSsRZ2tEqlu-2vmy3c-3" style="edgeStyle=orthogonalEdgeStyle;rounded=0;orthogonalLoop=1;jettySize=auto;html=1;exitX=0;exitY=0.5;exitDx=0;exitDy=0;exitPerimeter=0;endArrow=none;endFill=0;strokeWidth=1;" edge="1" source="fCbSsRZ2tEqlu-2vmy3c-4" parent="1">
          <mxGeometry relative="1" as="geometry">
            <mxPoint x="240" y="160" as="targetPoint" />
            <mxPoint x="300" y="160" as="sourcePoint" />
          </mxGeometry>
        </mxCell>
        <mxCell id="fCbSsRZ2tEqlu-2vmy3c-4" value="" style="strokeWidth=2;html=1;shape=mxgraph.flowchart.annotation_1;align=left;pointerEvents=1;" vertex="1" parent="1">
          <mxGeometry x="340" y="110" width="50" height="100" as="geometry" />
        </mxCell>
        <mxCell id="fCbSsRZ2tEqlu-2vmy3c-5" value="#include &amp;lt;iostream&amp;gt;&lt;br&gt;#include &amp;lt;clocale&amp;gt;&lt;br&gt;using namespace std;&lt;br&gt;&lt;br&gt;int main(){&lt;br&gt;&lt;span style=&quot;white-space: pre;&quot;&gt;&#x9;&lt;/span&gt;setlocale(LC_ALL, &quot;Russian&quot;);" style="text;strokeColor=none;fillColor=none;align=left;verticalAlign=middle;spacingLeft=4;spacingRight=4;overflow=hidden;points=[[0,0.5],[1,0.5]];portConstraint=eastwest;rotatable=0;whiteSpace=wrap;html=1;" vertex="1" parent="1">
          <mxGeometry x="340" y="110" width="220" height="100" as="geometry" />
        </mxCell>
        <mxCell id="fCbSsRZ2tEqlu-2vmy3c-7" style="edgeStyle=orthogonalEdgeStyle;rounded=0;orthogonalLoop=1;jettySize=auto;html=1;exitX=0.5;exitY=1;exitDx=0;exitDy=0;" edge="1" parent="1" source="fCbSsRZ2tEqlu-2vmy3c-6" target="fCbSsRZ2tEqlu-2vmy3c-8">
          <mxGeometry relative="1" as="geometry">
            <mxPoint x="239.56521739130437" y="280" as="targetPoint" />
          </mxGeometry>
        </mxCell>
        <mxCell id="fCbSsRZ2tEqlu-2vmy3c-6" value="int nav, n;" style="rounded=1;whiteSpace=wrap;html=1;absoluteArcSize=1;arcSize=14;strokeWidth=2;" vertex="1" parent="1">
          <mxGeometry x="189.9999999999999" y="200" width="100" height="40" as="geometry" />
        </mxCell>
        <mxCell id="fCbSsRZ2tEqlu-2vmy3c-9" style="edgeStyle=orthogonalEdgeStyle;rounded=0;orthogonalLoop=1;jettySize=auto;html=1;exitX=0.5;exitY=1;exitDx=0;exitDy=0;" edge="1" parent="1" source="fCbSsRZ2tEqlu-2vmy3c-8" target="fCbSsRZ2tEqlu-2vmy3c-10">
          <mxGeometry relative="1" as="geometry">
            <mxPoint x="240" y="360" as="targetPoint" />
          </mxGeometry>
        </mxCell>
        <mxCell id="fCbSsRZ2tEqlu-2vmy3c-8" value="&lt;div&gt;cout &amp;lt;&amp;lt; &quot;Выберете задачу: \n1. Решение рекурсивного выражения \n2.&amp;nbsp;&lt;/div&gt;&lt;div&gt;Числа Фибоначи \n3. Ханойская башня \nВведите номер:&quot;;&lt;/div&gt;" style="shape=parallelogram;html=1;strokeWidth=2;perimeter=parallelogramPerimeter;whiteSpace=wrap;rounded=1;arcSize=12;size=0.043282821484202545;" vertex="1" parent="1">
          <mxGeometry x="119.99" y="280" width="440.01" height="40" as="geometry" />
        </mxCell>
        <mxCell id="fCbSsRZ2tEqlu-2vmy3c-11" style="edgeStyle=orthogonalEdgeStyle;rounded=0;orthogonalLoop=1;jettySize=auto;html=1;exitX=0.5;exitY=1;exitDx=0;exitDy=0;entryX=0.5;entryY=0;entryDx=0;entryDy=0;entryPerimeter=0;" edge="1" parent="1" source="fCbSsRZ2tEqlu-2vmy3c-10" target="fCbSsRZ2tEqlu-2vmy3c-13">
          <mxGeometry relative="1" as="geometry">
            <mxPoint x="240" y="440" as="targetPoint" />
          </mxGeometry>
        </mxCell>
        <mxCell id="fCbSsRZ2tEqlu-2vmy3c-10" value="cin &amp;gt;&amp;gt; nav;" style="shape=parallelogram;html=1;strokeWidth=2;perimeter=parallelogramPerimeter;whiteSpace=wrap;rounded=1;arcSize=12;size=0.16666666666666666;" vertex="1" parent="1">
          <mxGeometry x="160" y="360" width="160" height="40" as="geometry" />
        </mxCell>
        <mxCell id="fCbSsRZ2tEqlu-2vmy3c-12" style="edgeStyle=orthogonalEdgeStyle;rounded=0;orthogonalLoop=1;jettySize=auto;html=1;exitX=0.5;exitY=1;exitDx=0;exitDy=0;exitPerimeter=0;entryX=0;entryY=0.5;entryDx=0;entryDy=0;" edge="1" source="fCbSsRZ2tEqlu-2vmy3c-13" target="fCbSsRZ2tEqlu-2vmy3c-15" parent="1">
          <mxGeometry relative="1" as="geometry">
            <mxPoint x="243.47619047619048" y="659.9999999999995" as="targetPoint" />
          </mxGeometry>
        </mxCell>
        <mxCell id="fCbSsRZ2tEqlu-2vmy3c-39" style="edgeStyle=orthogonalEdgeStyle;rounded=0;orthogonalLoop=1;jettySize=auto;html=1;exitX=0.5;exitY=1;exitDx=0;exitDy=0;exitPerimeter=0;entryX=0;entryY=0.5;entryDx=0;entryDy=0;" edge="1" parent="1" source="fCbSsRZ2tEqlu-2vmy3c-13" target="fCbSsRZ2tEqlu-2vmy3c-31">
          <mxGeometry relative="1" as="geometry" />
        </mxCell>
        <mxCell id="fCbSsRZ2tEqlu-2vmy3c-13" value="switch" style="strokeWidth=2;html=1;shape=mxgraph.flowchart.decision;whiteSpace=wrap;" vertex="1" parent="1">
          <mxGeometry x="144.99" y="449.99999999999955" width="190" height="60" as="geometry" />
        </mxCell>
        <mxCell id="fCbSsRZ2tEqlu-2vmy3c-14" style="edgeStyle=orthogonalEdgeStyle;rounded=0;orthogonalLoop=1;jettySize=auto;html=1;exitX=1;exitY=0.5;exitDx=0;exitDy=0;entryX=0;entryY=0.5;entryDx=0;entryDy=0;" edge="1" source="fCbSsRZ2tEqlu-2vmy3c-15" parent="1" target="fCbSsRZ2tEqlu-2vmy3c-16">
          <mxGeometry relative="1" as="geometry">
            <mxPoint x="413" y="539.9999999999995" as="targetPoint" />
          </mxGeometry>
        </mxCell>
        <mxCell id="fCbSsRZ2tEqlu-2vmy3c-15" value="case 1:" style="rounded=1;whiteSpace=wrap;html=1;absoluteArcSize=1;arcSize=14;strokeWidth=2;" vertex="1" parent="1">
          <mxGeometry x="280" y="520" width="100" height="40" as="geometry" />
        </mxCell>
        <mxCell id="fCbSsRZ2tEqlu-2vmy3c-17" style="edgeStyle=orthogonalEdgeStyle;rounded=0;orthogonalLoop=1;jettySize=auto;html=1;exitX=1;exitY=0.5;exitDx=0;exitDy=0;" edge="1" parent="1" source="fCbSsRZ2tEqlu-2vmy3c-16" target="fCbSsRZ2tEqlu-2vmy3c-18">
          <mxGeometry relative="1" as="geometry">
            <mxPoint x="600" y="539.9473684210527" as="targetPoint" />
          </mxGeometry>
        </mxCell>
        <mxCell id="fCbSsRZ2tEqlu-2vmy3c-16" value="funk_expression();" style="shape=parallelogram;html=1;strokeWidth=2;perimeter=parallelogramPerimeter;whiteSpace=wrap;rounded=1;arcSize=12;size=0.16666666666666666;" vertex="1" parent="1">
          <mxGeometry x="410" y="520" width="160" height="40" as="geometry" />
        </mxCell>
        <mxCell id="fCbSsRZ2tEqlu-2vmy3c-44" style="edgeStyle=orthogonalEdgeStyle;rounded=0;orthogonalLoop=1;jettySize=auto;html=1;exitX=1;exitY=0.5;exitDx=0;exitDy=0;" edge="1" parent="1" source="fCbSsRZ2tEqlu-2vmy3c-18">
          <mxGeometry relative="1" as="geometry">
            <mxPoint x="760" y="1000" as="targetPoint" />
          </mxGeometry>
        </mxCell>
        <mxCell id="fCbSsRZ2tEqlu-2vmy3c-18" value="break;" style="rounded=1;whiteSpace=wrap;html=1;absoluteArcSize=1;arcSize=14;strokeWidth=2;" vertex="1" parent="1">
          <mxGeometry x="600" y="519.9973684210527" width="100" height="40" as="geometry" />
        </mxCell>
        <mxCell id="fCbSsRZ2tEqlu-2vmy3c-19" value="" style="endArrow=classic;html=1;rounded=0;exitX=0.5;exitY=1;exitDx=0;exitDy=0;exitPerimeter=0;entryX=0;entryY=0.5;entryDx=0;entryDy=0;" edge="1" parent="1" source="fCbSsRZ2tEqlu-2vmy3c-13" target="fCbSsRZ2tEqlu-2vmy3c-20">
          <mxGeometry width="50" height="50" relative="1" as="geometry">
            <mxPoint x="380.0000000000001" y="530" as="sourcePoint" />
            <mxPoint x="270" y="620" as="targetPoint" />
            <Array as="points">
              <mxPoint x="240" y="620" />
            </Array>
          </mxGeometry>
        </mxCell>
        <mxCell id="fCbSsRZ2tEqlu-2vmy3c-21" style="edgeStyle=orthogonalEdgeStyle;rounded=0;orthogonalLoop=1;jettySize=auto;html=1;exitX=1;exitY=0.5;exitDx=0;exitDy=0;" edge="1" parent="1" source="fCbSsRZ2tEqlu-2vmy3c-20" target="fCbSsRZ2tEqlu-2vmy3c-22">
          <mxGeometry relative="1" as="geometry">
            <mxPoint x="420" y="620.3529411764707" as="targetPoint" />
          </mxGeometry>
        </mxCell>
        <mxCell id="fCbSsRZ2tEqlu-2vmy3c-20" value="case 2:" style="rounded=1;whiteSpace=wrap;html=1;absoluteArcSize=1;arcSize=14;strokeWidth=2;" vertex="1" parent="1">
          <mxGeometry x="280" y="600" width="100" height="40" as="geometry" />
        </mxCell>
        <mxCell id="fCbSsRZ2tEqlu-2vmy3c-23" style="edgeStyle=orthogonalEdgeStyle;rounded=0;orthogonalLoop=1;jettySize=auto;html=1;exitX=1;exitY=0.5;exitDx=0;exitDy=0;" edge="1" parent="1" source="fCbSsRZ2tEqlu-2vmy3c-22" target="fCbSsRZ2tEqlu-2vmy3c-24">
          <mxGeometry relative="1" as="geometry">
            <mxPoint x="640" y="620.3529411764707" as="targetPoint" />
          </mxGeometry>
        </mxCell>
        <mxCell id="fCbSsRZ2tEqlu-2vmy3c-22" value="cout &amp;lt;&amp;lt; &quot;Введите количество чисел, которое нужно вывести: &quot;;" style="shape=parallelogram;html=1;strokeWidth=2;perimeter=parallelogramPerimeter;whiteSpace=wrap;rounded=1;arcSize=12;size=0.07500000000000001;" vertex="1" parent="1">
          <mxGeometry x="410" y="600" width="200" height="40" as="geometry" />
        </mxCell>
        <mxCell id="fCbSsRZ2tEqlu-2vmy3c-26" style="edgeStyle=orthogonalEdgeStyle;rounded=0;orthogonalLoop=1;jettySize=auto;html=1;exitX=0.5;exitY=1;exitDx=0;exitDy=0;entryX=0;entryY=0.5;entryDx=0;entryDy=0;" edge="1" parent="1" source="fCbSsRZ2tEqlu-2vmy3c-24" target="fCbSsRZ2tEqlu-2vmy3c-25">
          <mxGeometry relative="1" as="geometry" />
        </mxCell>
        <mxCell id="fCbSsRZ2tEqlu-2vmy3c-24" value="cin &amp;gt;&amp;gt; n;" style="shape=parallelogram;html=1;strokeWidth=2;perimeter=parallelogramPerimeter;whiteSpace=wrap;rounded=1;arcSize=12;size=0.16666666666666666;" vertex="1" parent="1">
          <mxGeometry x="640" y="600" width="90" height="40" as="geometry" />
        </mxCell>
        <mxCell id="fCbSsRZ2tEqlu-2vmy3c-29" style="edgeStyle=orthogonalEdgeStyle;rounded=0;orthogonalLoop=1;jettySize=auto;html=1;exitX=1;exitY=0.5;exitDx=0;exitDy=0;entryX=0;entryY=0.5;entryDx=0;entryDy=0;" edge="1" parent="1" source="fCbSsRZ2tEqlu-2vmy3c-25" target="fCbSsRZ2tEqlu-2vmy3c-27">
          <mxGeometry relative="1" as="geometry" />
        </mxCell>
        <mxCell id="fCbSsRZ2tEqlu-2vmy3c-25" value="funk_fibonachi(n);" style="shape=parallelogram;html=1;strokeWidth=2;perimeter=parallelogramPerimeter;whiteSpace=wrap;rounded=1;arcSize=12;size=0.16666666666666666;" vertex="1" parent="1">
          <mxGeometry x="400" y="680" width="160" height="40" as="geometry" />
        </mxCell>
        <mxCell id="fCbSsRZ2tEqlu-2vmy3c-45" style="edgeStyle=orthogonalEdgeStyle;rounded=0;orthogonalLoop=1;jettySize=auto;html=1;exitX=1;exitY=0.5;exitDx=0;exitDy=0;" edge="1" parent="1" source="fCbSsRZ2tEqlu-2vmy3c-27">
          <mxGeometry relative="1" as="geometry">
            <mxPoint x="760" y="1000" as="targetPoint" />
          </mxGeometry>
        </mxCell>
        <mxCell id="fCbSsRZ2tEqlu-2vmy3c-27" value="break;" style="rounded=1;whiteSpace=wrap;html=1;absoluteArcSize=1;arcSize=14;strokeWidth=2;" vertex="1" parent="1">
          <mxGeometry x="600" y="679.9973684210527" width="100" height="40" as="geometry" />
        </mxCell>
        <mxCell id="fCbSsRZ2tEqlu-2vmy3c-30" style="edgeStyle=orthogonalEdgeStyle;rounded=0;orthogonalLoop=1;jettySize=auto;html=1;exitX=1;exitY=0.5;exitDx=0;exitDy=0;" edge="1" parent="1" source="fCbSsRZ2tEqlu-2vmy3c-31" target="fCbSsRZ2tEqlu-2vmy3c-33">
          <mxGeometry relative="1" as="geometry">
            <mxPoint x="420" y="780.3529411764707" as="targetPoint" />
          </mxGeometry>
        </mxCell>
        <mxCell id="fCbSsRZ2tEqlu-2vmy3c-31" value="case3:" style="rounded=1;whiteSpace=wrap;html=1;absoluteArcSize=1;arcSize=14;strokeWidth=2;" vertex="1" parent="1">
          <mxGeometry x="280" y="760" width="100" height="40" as="geometry" />
        </mxCell>
        <mxCell id="fCbSsRZ2tEqlu-2vmy3c-32" style="edgeStyle=orthogonalEdgeStyle;rounded=0;orthogonalLoop=1;jettySize=auto;html=1;exitX=1;exitY=0.5;exitDx=0;exitDy=0;" edge="1" parent="1" source="fCbSsRZ2tEqlu-2vmy3c-33" target="fCbSsRZ2tEqlu-2vmy3c-35">
          <mxGeometry relative="1" as="geometry">
            <mxPoint x="640" y="780.3529411764707" as="targetPoint" />
          </mxGeometry>
        </mxCell>
        <mxCell id="fCbSsRZ2tEqlu-2vmy3c-33" value="cout &amp;lt;&amp;lt; &quot;Введите количество колец: &quot;;" style="shape=parallelogram;html=1;strokeWidth=2;perimeter=parallelogramPerimeter;whiteSpace=wrap;rounded=1;arcSize=12;size=0.07500000000000001;" vertex="1" parent="1">
          <mxGeometry x="410" y="760" width="200" height="40" as="geometry" />
        </mxCell>
        <mxCell id="fCbSsRZ2tEqlu-2vmy3c-34" style="edgeStyle=orthogonalEdgeStyle;rounded=0;orthogonalLoop=1;jettySize=auto;html=1;exitX=0.5;exitY=1;exitDx=0;exitDy=0;entryX=0;entryY=0.5;entryDx=0;entryDy=0;" edge="1" parent="1" source="fCbSsRZ2tEqlu-2vmy3c-35" target="fCbSsRZ2tEqlu-2vmy3c-37">
          <mxGeometry relative="1" as="geometry" />
        </mxCell>
        <mxCell id="fCbSsRZ2tEqlu-2vmy3c-35" value="cin &amp;gt;&amp;gt; n;" style="shape=parallelogram;html=1;strokeWidth=2;perimeter=parallelogramPerimeter;whiteSpace=wrap;rounded=1;arcSize=12;size=0.16666666666666666;" vertex="1" parent="1">
          <mxGeometry x="640" y="760" width="90" height="40" as="geometry" />
        </mxCell>
        <mxCell id="fCbSsRZ2tEqlu-2vmy3c-36" style="edgeStyle=orthogonalEdgeStyle;rounded=0;orthogonalLoop=1;jettySize=auto;html=1;exitX=1;exitY=0.5;exitDx=0;exitDy=0;entryX=0;entryY=0.5;entryDx=0;entryDy=0;" edge="1" parent="1" source="fCbSsRZ2tEqlu-2vmy3c-37" target="fCbSsRZ2tEqlu-2vmy3c-38">
          <mxGeometry relative="1" as="geometry" />
        </mxCell>
        <mxCell id="fCbSsRZ2tEqlu-2vmy3c-37" value="funk_hanoy(n);" style="shape=parallelogram;html=1;strokeWidth=2;perimeter=parallelogramPerimeter;whiteSpace=wrap;rounded=1;arcSize=12;size=0.16666666666666666;" vertex="1" parent="1">
          <mxGeometry x="400" y="840" width="160" height="40" as="geometry" />
        </mxCell>
        <mxCell id="fCbSsRZ2tEqlu-2vmy3c-46" style="edgeStyle=orthogonalEdgeStyle;rounded=0;orthogonalLoop=1;jettySize=auto;html=1;exitX=1;exitY=0.5;exitDx=0;exitDy=0;" edge="1" parent="1" source="fCbSsRZ2tEqlu-2vmy3c-38">
          <mxGeometry relative="1" as="geometry">
            <mxPoint x="760" y="1000" as="targetPoint" />
          </mxGeometry>
        </mxCell>
        <mxCell id="fCbSsRZ2tEqlu-2vmy3c-38" value="break;" style="rounded=1;whiteSpace=wrap;html=1;absoluteArcSize=1;arcSize=14;strokeWidth=2;" vertex="1" parent="1">
          <mxGeometry x="600" y="839.9973684210527" width="100" height="40" as="geometry" />
        </mxCell>
        <mxCell id="fCbSsRZ2tEqlu-2vmy3c-40" style="edgeStyle=orthogonalEdgeStyle;rounded=0;orthogonalLoop=1;jettySize=auto;html=1;entryX=0;entryY=0.5;entryDx=0;entryDy=0;exitX=0.5;exitY=1;exitDx=0;exitDy=0;exitPerimeter=0;" edge="1" target="fCbSsRZ2tEqlu-2vmy3c-42" parent="1" source="fCbSsRZ2tEqlu-2vmy3c-13">
          <mxGeometry relative="1" as="geometry">
            <mxPoint x="240.47619047619048" y="1040" as="targetPoint" />
            <mxPoint x="240.70999999999998" y="880" as="sourcePoint" />
            <Array as="points">
              <mxPoint x="240" y="920" />
            </Array>
          </mxGeometry>
        </mxCell>
        <mxCell id="fCbSsRZ2tEqlu-2vmy3c-41" style="edgeStyle=orthogonalEdgeStyle;rounded=0;orthogonalLoop=1;jettySize=auto;html=1;exitX=1;exitY=0.5;exitDx=0;exitDy=0;entryX=0;entryY=0.5;entryDx=0;entryDy=0;" edge="1" source="fCbSsRZ2tEqlu-2vmy3c-42" parent="1" target="fCbSsRZ2tEqlu-2vmy3c-43">
          <mxGeometry relative="1" as="geometry">
            <mxPoint x="409.99999999999994" y="920" as="targetPoint" />
          </mxGeometry>
        </mxCell>
        <mxCell id="fCbSsRZ2tEqlu-2vmy3c-42" value="default:" style="rounded=1;whiteSpace=wrap;html=1;absoluteArcSize=1;arcSize=14;strokeWidth=2;" vertex="1" parent="1">
          <mxGeometry x="280" y="900" width="100" height="40" as="geometry" />
        </mxCell>
        <mxCell id="fCbSsRZ2tEqlu-2vmy3c-47" style="edgeStyle=orthogonalEdgeStyle;rounded=0;orthogonalLoop=1;jettySize=auto;html=1;exitX=1;exitY=0.5;exitDx=0;exitDy=0;" edge="1" parent="1" source="fCbSsRZ2tEqlu-2vmy3c-43">
          <mxGeometry relative="1" as="geometry">
            <mxPoint x="760" y="1000" as="targetPoint" />
          </mxGeometry>
        </mxCell>
        <mxCell id="fCbSsRZ2tEqlu-2vmy3c-43" value="break;" style="rounded=1;whiteSpace=wrap;html=1;absoluteArcSize=1;arcSize=14;strokeWidth=2;" vertex="1" parent="1">
          <mxGeometry x="410" y="899.9973684210527" width="100" height="40" as="geometry" />
        </mxCell>
        <mxCell id="fCbSsRZ2tEqlu-2vmy3c-48" value="return 0:}" style="ellipse;whiteSpace=wrap;html=1;" vertex="1" parent="1">
          <mxGeometry x="710" y="1000" width="100" height="60" as="geometry" />
        </mxCell>
        <mxCell id="fCbSsRZ2tEqlu-2vmy3c-49" value="{" style="text;html=1;strokeColor=none;fillColor=none;align=center;verticalAlign=middle;whiteSpace=wrap;rounded=0;" vertex="1" parent="1">
          <mxGeometry x="210" y="510" width="30" height="30" as="geometry" />
        </mxCell>
        <mxCell id="fCbSsRZ2tEqlu-2vmy3c-50" value="}" style="text;html=1;strokeColor=none;fillColor=none;align=center;verticalAlign=middle;whiteSpace=wrap;rounded=0;" vertex="1" parent="1">
          <mxGeometry x="760" y="920" width="30" height="30" as="geometry" />
        </mxCell>
      </root>
    </mxGraphModel>
  </diagram>
</mxfile>
